<?xml version="1.0" encoding="UTF-8" standalone="no"?>
<!DOCTYPE svg PUBLIC "-//W3C//DTD SVG 1.1//EN" "http://www.w3.org/Graphics/SVG/1.1/DTD/svg11.dtd">
<svg width="100%" height="100%" viewBox="0 0 842 109" version="1.1" xmlns="http://www.w3.org/2000/svg" xmlns:xlink="http://www.w3.org/1999/xlink" xml:space="preserve" xmlns:serif="http://www.serif.com/" style="fill-rule:evenodd;clip-rule:evenodd;stroke-linecap:round;stroke-linejoin:round;stroke-miterlimit:1.5;">
    <g transform="matrix(1,0,0,1,-122.101,-463.61)">
        <g transform="matrix(1,0,0,1,-7.00639,13.9651)">
            <g transform="matrix(1,-0,-0,1,129.107,449.645)">
                <path d="M776.348,67.39L803.348,76.39L776.348,85.39L776.348,67.39Z"/>
                <path d="M32.45,76.39L781.748,76.39" style="fill:none;stroke:black;stroke-width:2px;"/>
            </g>
        </g>
        <g transform="matrix(1,0,0,1,42.1426,63.1815)">
            <text x="897.844px" y="487.553px" style="font-family:'TimesNewRomanPSMT', 'Times New Roman', serif;font-size:48px;">x</text>
        </g>
        <g transform="matrix(1,0,0,1,343.894,15.5542)">
            <circle cx="196.106" cy="524.446" r="10.909" style="fill:white;stroke:black;stroke-width:2px;"/>
        </g>
        <g transform="matrix(1,0,0,1,63.2701,15.5542)">
            <circle cx="196.106" cy="524.446" r="10.909" style="stroke:black;stroke-width:2px;"/>
        </g>
        <g transform="matrix(1,0,0,1,203.582,15.5542)">
            <circle cx="196.106" cy="524.446" r="10.909" style="fill:white;stroke:black;stroke-width:2px;"/>
        </g>
        <g transform="matrix(1,0,0,1,484.207,15.5542)">
            <circle cx="196.106" cy="524.446" r="10.909" style="fill:white;stroke:black;stroke-width:2px;"/>
        </g>
        <g transform="matrix(1,0,0,1,624.519,15.5542)">
            <circle cx="196.106" cy="524.446" r="10.909" style="stroke:black;stroke-width:2px;"/>
        </g>
        <g transform="matrix(1,0,0,1,6.04087,-16.5208)">
            <text x="232.266px" y="511.912px" style="font-family:'TimesNewRomanPSMT', 'Times New Roman', serif;font-size:48px;">P</text>
            <text x="258.961px" y="527.896px" style="font-family:'TimesNewRomanPSMT', 'Times New Roman', serif;font-size:27.984px;">0</text>
        </g>
        <g transform="matrix(1,0,0,1,147.179,-16.5208)">
            <text x="232.266px" y="511.912px" style="font-family:'TimesNewRomanPSMT', 'Times New Roman', serif;font-size:48px;">P</text>
            <text x="258.961px" y="527.896px" style="font-family:'TimesNewRomanPSMT', 'Times New Roman', serif;font-size:27.984px;">1</text>
        </g>
        <g transform="matrix(1,0,0,1,288.7,-16.5208)">
            <text x="232.266px" y="511.912px" style="font-family:'TimesNewRomanPSMT', 'Times New Roman', serif;font-size:48px;">P</text>
            <text x="258.961px" y="527.896px" style="font-family:'TimesNewRomanPSMT', 'Times New Roman', serif;font-size:27.984px;">2</text>
        </g>
        <g transform="matrix(1,0,0,1,427.947,-16.1929)">
            <text x="232.266px" y="511.912px" style="font-family:'TimesNewRomanPSMT', 'Times New Roman', serif;font-size:48px;">P</text>
            <text x="258.961px" y="527.896px" style="font-family:'TimesNewRomanPSMT', 'Times New Roman', serif;font-size:27.984px;">3</text>
        </g>
        <g transform="matrix(1,0,0,1,567.193,-16.1929)">
            <text x="232.266px" y="511.912px" style="font-family:'TimesNewRomanPSMT', 'Times New Roman', serif;font-size:48px;">P</text>
            <text x="258.961px" y="527.896px" style="font-family:'TimesNewRomanPSMT', 'Times New Roman', serif;font-size:27.984px;">4</text>
        </g>
    </g>
</svg>
